# xmcd CD database file
#
# Track frame offsets:
#	150
#	21490
#	37855
#	63277
#	79760
#	95722
#	116652
#	139367
#	156220
#	173197
#	190937
#	209375
#
# Disc length: 3030 seconds
#
# Revision: 0
# Processed by: cddbd v1.5.1PL0 Copyright (c) Steve Scherf et al.
# Submitted via: CDex 1.51
#
DISCID=a70bd40c
DTITLE=Lamarotte Jazz band - Lamarotte 3
DYEAR=1997
DGENRE=Jazz
TTITLE0=Lamarotte (Alabama) Jubilee
TTITLE1=I Wanna Be Like You
TTITLE2=Marie
TTITLE3=Potato Head Blues
TTITLE4=When I'm Walkin'
TTITLE5=There's Yes Yes In Your Eyes
TTITLE6=Pretty Baby
TTITLE7=I'm Walkin'
TTITLE8=I Can't Dance (I Got Ants In MY Pants)
TTITLE9=Milenberg Joys
TTITLE10=Dr. Jazz
TTITLE11=I Wish I Could Shimmy Like My Sister Kate
EXTD=YEAR: 1997
EXTT0=
EXTT1=
EXTT2=
EXTT3=
EXTT4=
EXTT5=
EXTT6=
EXTT7=
EXTT8=
EXTT9=
EXTT10=
EXTT11=
PLAYORDER=
